<svg xmlns="http://www.w3.org/2000/svg" preserveAspectRatio="xMinYMin meet">
                <g class="scaling-icon" style="fill-opacity: 1">
                  <g class="bug-34dp" fill="none" fill-rule="evenodd" stroke="none" stroke-width="1">
                    <g class="dp-1">
                      <path class="bug-text-color" fill="#ffffff" d="M 2.8 34 L 31.2 34 C 32.746 34 34 32.746 34 31.2 L 34 2.8 C 34 1.254 32.746 0 31.2 0 L 2.8 0 C 1.254 0 0 1.254 0 2.8 L 0 31.2 C 0 32.746 1.254 34 2.8 34" />
                      <path class="background" fill="#0077b5" d="M 2.8 34 L 31.2 34 C 32.746 34 34 32.746 34 31.2 L 34 2.8 C 34 1.254 32.746 0 31.2 0 L 2.8 0 C 1.254 0 0 1.254 0 2.8 L 0 31.2 C 0 32.746 1.254 34 2.8 34 Z M 13 13 L 17.75 13 L 17.75 15.391 C 18.387 14.114 20.242 12.75 22.695 12.75 C 27.397 12.75 29 14.875 29 19.922 L 29 29 L 24 29 L 24 20.984 C 24 18.328 23.481 16.875 21.542 16.875 C 18.921 16.875 18 18.867 18 20.984 L 18 29 L 13 29 L 13 13 Z M 5 29 L 10 29 L 10 13 L 5 13 L 5 29 Z M 10.55 7.5 C 10.55 9.184 9.184 10.55 7.5 10.55 C 5.816 10.55 4.45 9.184 4.45 7.5 C 4.45 5.815 5.816 4.45 7.5 4.45 C 9.184 4.45 10.55 5.815 10.55 7.5 Z" />
                    </g>
                    <g class="dpi-gt1" transform="scale(0.7083)">
                      <rect class="bug-text-color" fill="#ffffff" x="1" y="1" width="46" height="46" rx="4" />
                      <path class="background" fill="#0077b5" d="M 0 4.00989 C 0 1.79529 1.79405 0 4.00989 0 L 43.9901 0 C 46.2047 0 48 1.79405 48 4.00989 L 48 43.9901 C 48 46.2047 46.2059 48 43.9901 48 L 4.00989 48 C 1.79529 48 0 46.2059 0 43.9901 L 0 4.00989 Z M 19 18.3 L 25.5 18.3 L 25.5 21.566 C 26.437 19.688 28.838 18 32.445 18 C 39.359 18 41 21.738 41 28.597 L 41 41.3 L 34 41.3 L 34 30.159 C 34 26.253 33.063 24.05 30.68 24.05 C 27.375 24.05 26 26.425 26 30.159 L 26 41.3 L 19 41.3 L 19 18.3 Z M 7 41 L 14 41 L 14 18 L 7 18 L 7 41 Z M 15 10.5 C 15 12.985 12.985 15 10.5 15 C 8.015 15 6 12.985 6 10.5 C 6 8.015 8.015 6 10.5 6 C 12.985 6 15 8.015 15 10.5 Z" />
                    </g>
                  </g>
                </g>
              </svg>